<svg xmlns="http://www.w3.org/2000/svg" width="200" height="150" viewBox="0 0 200 150">
  <style>
    .plate { fill: #f5f5f5; stroke: #e0e0e0; stroke-width: 2; }
    .pasta { fill: #f9d784; stroke: #e6c06e; stroke-width: 1; }
    .sauce { fill: #d35400; }
    .herb { fill: #27ae60; }
  </style>
  <g>
    <!-- Plate -->
    <ellipse class="plate" cx="100" cy="100" rx="80" ry="40"/>
    
    <!-- Pasta -->
    <path class="pasta" d="M50,90 C60,85 70,95 80,90 C90,85 100,95 110,90 C120,85 130,95 140,90 C150,85 160,95 170,90 M50,100 C60,95 70,105 80,100 C90,95 100,105 110,100 C120,95 130,105 140,100 C150,95 160,105 170,100 M50,110 C60,105 70,115 80,110 C90,105 100,115 110,110 C120,105 130,115 140,110 C150,105 160,115 170,110"/>
    
    <!-- Sauce -->
    <circle class="sauce" cx="90" cy="95" r="8"/>
    <circle class="sauce" cx="110" cy="105" r="10"/>
    <circle class="sauce" cx="130" cy="95" r="7"/>
    <circle class="sauce" cx="70" cy="105" r="9"/>
    
    <!-- Herbs -->
    <circle class="herb" cx="85" cy="90" r="2"/>
    <circle class="herb" cx="115" cy="100" r="2"/>
    <circle class="herb" cx="135" cy="90" r="2"/>
    <circle class="herb" cx="75" cy="100" r="2"/>
    <circle class="herb" cx="95" cy="110" r="2"/>
    <circle class="herb" cx="125" cy="110" r="2"/>
  </g>
</svg>