<svg xmlns="http://www.w3.org/2000/svg" width="200" height="150" viewBox="0 0 200 150">
  <style>
    .plate { fill: #f5f5f5; stroke: #e0e0e0; stroke-width: 2; }
    .lettuce { fill: #2ecc71; }
    .tomato { fill: #e74c3c; }
    .cucumber { fill: #a5d6a7; }
    .onion { fill: #f5b7b1; }
    .cheese { fill: #f9e79f; }
    .dressing { fill: #f39c12; fill-opacity: 0.3; }
  </style>
  <g>
    <!-- Plate -->
    <ellipse class="plate" cx="100" cy="100" rx="80" ry="40"/>
    
    <!-- Lettuce Base -->
    <path class="lettuce" d="M50,100 C60,90 80,95 100,90 C120,85 140,90 150,100 C140,110 120,115 100,110 C80,115 60,110 50,100 Z"/>
    <path class="lettuce" d="M60,95 C70,85 90,90 110,85 C130,80 150,85 160,95 C150,105 130,110 110,105 C90,110 70,105 60,95 Z" opacity="0.7"/>
    
    <!-- Vegetables -->
    <circle class="tomato" cx="70" cy="95" r="8"/>
    <circle class="tomato" cx="130" cy="95" r="8"/>
    <circle class="tomato" cx="100" cy="105" r="8"/>
    
    <path class="cucumber" d="M80,90 L90,100 L80,110" stroke="#a5d6a7" stroke-width="4" fill="none"/>
    <path class="cucumber" d="M120,90 L110,100 L120,110" stroke="#a5d6a7" stroke-width="4" fill="none"/>
    
    <circle class="onion" cx="85" cy="100" r="5" opacity="0.7"/>
    <circle class="onion" cx="115" cy="100" r="5" opacity="0.7"/>
    
    <!-- Cheese -->
    <rect class="cheese" x="95" y="90" width="3" height="20" transform="rotate(30, 95, 90)"/>
    <rect class="cheese" x="105" y="90" width="3" height="20" transform="rotate(-30, 105, 90)"/>
    <rect class="cheese" x="115" y="95" width="3" height="15" transform="rotate(45, 115, 95)"/>
    <rect class="cheese" x="85" y="95" width="3" height="15" transform="rotate(-45, 85, 95)"/>
    
    <!-- Dressing -->
    <ellipse class="dressing" cx="100" cy="100" rx="60" ry="30"/>
  </g>
</svg>